<mxfile host="app.diagrams.net" modified="2023-02-27T20:53:38.760Z" agent="5.0 (Windows NT 10.0; Win64; x64) AppleWebKit/537.36 (KHTML, like Gecko) Chrome/110.0.0.0 Safari/537.36" etag="aqGCqkTjJwh3OeJPBFJD" version="20.5.1" type="github">
  <diagram id="WM9ZCvMPwcFUJ909sLoY" name="Page-1">
    <mxGraphModel dx="868" dy="482" grid="1" gridSize="10" guides="1" tooltips="1" connect="1" arrows="1" fold="1" page="1" pageScale="1" pageWidth="1169" pageHeight="827" math="0" shadow="0">
      <root>
        <mxCell id="0" />
        <mxCell id="1" parent="0" />
        <mxCell id="ihwB0_0pNR4ERd2SpvKh-1" value="&lt;ul&gt;&lt;li&gt;Primeiro Cliente&lt;/li&gt;&lt;li&gt;Arquivo de Origem (SCP)&lt;/li&gt;&lt;li&gt;Arquivo de Destino (Expedição)&lt;/li&gt;&lt;li&gt;Possíveis integrações com o ERP&lt;/li&gt;&lt;/ul&gt;" style="text;html=1;strokeColor=none;fillColor=none;align=left;verticalAlign=middle;whiteSpace=wrap;rounded=0;" vertex="1" parent="1">
          <mxGeometry y="10" width="290" height="120" as="geometry" />
        </mxCell>
      </root>
    </mxGraphModel>
  </diagram>
</mxfile>
